<svg width="1200" height="1000" viewBox="0 0 1200 1000" fill="none" xmlns="http://www.w3.org/2000/svg">
<rect x="200" width="1000" height="1000" rx="50" fill="#FF6B6B"/>
<rect width="1000" height="1000" rx="50" fill="#74C6D4"/>
<rect x="100" width="1000" height="1000" rx="50" fill="#2D3E50"/>
<path d="M317.383 315.531H383.301L468.75 569.682L553.955 315.531H619.873L495.361 671H441.895L317.383 315.531ZM279.297 315.531H346.436L358.887 578.959V671H279.297V315.531ZM590.82 315.531H658.203V671H578.369V578.959L590.82 315.531ZM768.086 463.236V671H691.67V406.84H763.447L768.086 463.236ZM758.076 529.643L739.033 530.131C739.033 510.274 741.475 492.452 746.357 476.664C751.24 460.876 758.158 447.449 767.109 436.381C776.224 425.15 787.048 416.605 799.58 410.746C812.275 404.887 826.273 401.957 841.572 401.957C853.942 401.957 865.254 403.747 875.508 407.328C885.762 410.909 894.551 416.687 901.875 424.662C909.362 432.475 915.059 442.891 918.965 455.912C922.871 468.77 924.824 484.639 924.824 503.52V671H848.164V503.275C848.164 492.208 846.618 483.663 843.525 477.641C840.433 471.618 835.876 467.387 829.854 464.945C823.994 462.504 816.833 461.283 808.369 461.283C799.417 461.283 791.768 463.074 785.42 466.654C779.072 470.072 773.864 474.874 769.795 481.059C765.726 487.243 762.715 494.486 760.762 502.787C758.971 511.088 758.076 520.04 758.076 529.643Z" fill="#F9F9F9"/>
</svg>
