<svg width="2233" height="1000" viewBox="0 0 2233 1000" fill="none" xmlns="http://www.w3.org/2000/svg">
<rect x="200" width="1000" height="1000" rx="50" fill="#FF6B6B"/>
<rect width="1000" height="1000" rx="50" fill="#74C6D4"/>
<rect x="100" width="1000" height="1000" rx="50" fill="#F9F9F9"/>
<path d="M363.859 341.438H442.961L545.5 646.418L647.746 341.438H726.848L577.434 768H513.273L363.859 341.438ZM318.156 341.438H398.723L413.664 657.551V768H318.156V341.438ZM691.984 341.438H772.844V768H677.043V657.551L691.984 341.438ZM904.703 518.684V768H813.004V451.008H899.137L904.703 518.684ZM892.691 598.371L869.84 598.957C869.84 575.129 872.77 553.742 878.629 534.797C884.488 515.852 892.789 499.738 903.531 486.457C914.469 472.98 927.457 462.727 942.496 455.695C957.73 448.664 974.527 445.148 992.887 445.148C1007.73 445.148 1021.3 447.297 1033.61 451.594C1045.91 455.891 1056.46 462.824 1065.25 472.395C1074.23 481.77 1081.07 494.27 1085.76 509.895C1090.45 525.324 1092.79 544.367 1092.79 567.023V768H1000.8V566.73C1000.8 553.449 998.941 543.195 995.23 535.969C991.52 528.742 986.051 523.664 978.824 520.734C971.793 517.805 963.199 516.34 953.043 516.34C942.301 516.34 933.121 518.488 925.504 522.785C917.887 526.887 911.637 532.648 906.754 540.07C901.871 547.492 898.258 556.184 895.914 566.145C893.766 576.105 892.691 586.848 892.691 598.371ZM1277.97 773.859C1252.77 773.859 1230.21 769.855 1210.29 761.848C1190.37 753.84 1173.48 742.805 1159.61 728.742C1145.94 714.484 1135.49 698.078 1128.26 679.523C1121.04 660.969 1117.42 641.145 1117.42 620.051V608.918C1117.42 585.285 1120.74 563.508 1127.38 543.586C1134.02 523.664 1143.69 506.379 1156.39 491.73C1169.28 476.887 1185.1 465.461 1203.85 457.453C1222.6 449.25 1243.98 445.148 1268.01 445.148C1290.47 445.148 1310.49 448.859 1328.07 456.281C1345.64 463.508 1360.49 473.957 1372.6 487.629C1384.71 501.105 1393.89 517.414 1400.14 536.555C1406.58 555.5 1409.8 576.789 1409.8 600.422V637.922H1154.34V579.035H1320.16V572.004C1320.16 560.871 1318.11 551.105 1314 542.707C1310.1 534.309 1304.24 527.863 1296.43 523.371C1288.81 518.684 1279.14 516.34 1267.42 516.34C1256.29 516.34 1247.01 518.684 1239.59 523.371C1232.17 528.059 1226.21 534.699 1221.72 543.293C1217.42 551.691 1214.3 561.555 1212.34 572.883C1210.39 584.016 1209.41 596.027 1209.41 608.918V620.051C1209.41 632.355 1211.07 643.586 1214.39 653.742C1217.71 663.898 1222.6 672.59 1229.04 679.816C1235.49 687.043 1243.3 692.707 1252.48 696.809C1261.66 700.91 1272.11 702.961 1283.83 702.961C1298.28 702.961 1312.05 700.227 1325.14 694.758C1338.22 689.094 1349.55 680.305 1359.12 668.391L1401.89 717.316C1395.45 726.691 1386.37 735.773 1374.65 744.562C1363.12 753.156 1349.26 760.188 1333.05 765.656C1316.84 771.125 1298.48 773.859 1277.97 773.859ZM1522.04 517.512V768H1430.63V451.008H1516.47L1522.04 517.512ZM1510.32 598.371L1487.17 598.957C1487.17 576.691 1489.81 556.281 1495.08 537.727C1500.55 518.977 1508.46 502.668 1518.81 488.801C1529.16 474.934 1541.96 464.191 1557.19 456.574C1572.62 448.957 1590.39 445.148 1610.51 445.148C1624.57 445.148 1637.37 447.297 1648.89 451.594C1660.41 455.695 1670.28 462.238 1678.48 471.223C1686.88 480.012 1693.32 491.535 1697.82 505.793C1702.31 519.855 1704.55 536.75 1704.55 556.477V768H1613.15V567.609C1613.15 553.547 1611.39 542.902 1607.88 535.676C1604.55 528.254 1599.67 523.176 1593.23 520.441C1586.78 517.707 1579.07 516.34 1570.08 516.34C1560.32 516.34 1551.62 518.488 1544.01 522.785C1536.59 526.887 1530.34 532.648 1525.26 540.07C1520.18 547.492 1516.37 556.184 1513.83 566.145C1511.49 576.105 1510.32 586.848 1510.32 598.371ZM1695.18 593.684L1666.18 596.027C1666.18 574.543 1668.71 554.621 1673.79 536.262C1678.87 517.902 1686.49 501.984 1696.64 488.508C1706.8 474.836 1719.4 464.191 1734.44 456.574C1749.67 448.957 1767.35 445.148 1787.46 445.148C1802.31 445.148 1815.79 447.297 1827.89 451.594C1840.2 455.891 1850.75 462.824 1859.54 472.395C1868.52 481.965 1875.45 494.562 1880.34 510.188C1885.22 525.617 1887.66 544.562 1887.66 567.023V768H1795.67V567.023C1795.67 553.156 1793.91 542.609 1790.39 535.383C1787.07 528.156 1782.19 523.176 1775.75 520.441C1769.5 517.707 1761.98 516.34 1753.19 516.34C1743.42 516.34 1734.93 518.391 1727.7 522.492C1720.47 526.398 1714.42 531.867 1709.54 538.898C1704.65 545.734 1701.04 553.84 1698.7 563.215C1696.35 572.59 1695.18 582.746 1695.18 593.684ZM1911.71 612.727V606.574C1911.71 583.332 1915.03 561.945 1921.67 542.414C1928.31 522.688 1938.07 505.598 1950.96 491.145C1963.86 476.691 1979.68 465.461 1998.43 457.453C2017.18 449.25 2038.66 445.148 2062.88 445.148C2087.49 445.148 2109.17 449.25 2127.92 457.453C2146.86 465.461 2162.78 476.691 2175.67 491.145C2188.56 505.598 2198.33 522.688 2204.97 542.414C2211.61 561.945 2214.93 583.332 2214.93 606.574V612.727C2214.93 635.773 2211.61 657.16 2204.97 676.887C2198.33 696.418 2188.56 713.508 2175.67 728.156C2162.78 742.609 2146.96 753.84 2128.21 761.848C2109.46 769.855 2087.88 773.859 2063.46 773.859C2039.25 773.859 2017.66 769.855 1998.72 761.848C1979.77 753.84 1963.86 742.609 1950.96 728.156C1938.07 713.508 1928.31 696.418 1921.67 676.887C1915.03 657.16 1911.71 635.773 1911.71 612.727ZM2003.41 606.574V612.727C2003.41 625.227 2004.38 636.945 2006.34 647.883C2008.48 658.82 2011.9 668.391 2016.59 676.594C2021.28 684.797 2027.43 691.242 2035.05 695.93C2042.86 700.422 2052.33 702.668 2063.46 702.668C2074.6 702.668 2083.97 700.422 2091.59 695.93C2099.21 691.242 2105.36 684.797 2110.05 676.594C2114.73 668.391 2118.05 658.82 2120.01 647.883C2122.16 636.945 2123.23 625.227 2123.23 612.727V606.574C2123.23 594.27 2122.16 582.746 2120.01 572.004C2118.05 561.066 2114.73 551.398 2110.05 543C2105.36 534.602 2099.11 528.059 2091.3 523.371C2083.68 518.684 2074.21 516.34 2062.88 516.34C2051.94 516.34 2042.66 518.684 2035.05 523.371C2027.43 528.059 2021.28 534.602 2016.59 543C2011.9 551.398 2008.48 561.066 2006.34 572.004C2004.38 582.746 2003.41 594.27 2003.41 606.574Z" fill="#F9F9F9"/>
<mask id="path-5-outside-1_266_3" maskUnits="userSpaceOnUse" x="255" y="296" width="1907" height="443" fill="black">
<rect fill="white" x="255" y="296" width="1907" height="443"/>
<path d="M305.859 301.438H384.961L487.5 606.418L589.746 301.438H668.848L519.434 728H455.273L305.859 301.438ZM260.156 301.438H340.723L355.664 617.551V728H260.156V301.438ZM633.984 301.438H714.844V728H619.043V617.551L633.984 301.438ZM846.703 478.684V728H755.004V411.008H841.137L846.703 478.684ZM834.691 558.371L811.84 558.957C811.84 535.129 814.77 513.742 820.629 494.797C826.488 475.852 834.789 459.738 845.531 446.457C856.469 432.98 869.457 422.727 884.496 415.695C899.73 408.664 916.527 405.148 934.887 405.148C949.73 405.148 963.305 407.297 975.609 411.594C987.914 415.891 998.461 422.824 1007.25 432.395C1016.23 441.77 1023.07 454.27 1027.76 469.895C1032.45 485.324 1034.79 504.367 1034.79 527.023V728H942.797V526.73C942.797 513.449 940.941 503.195 937.23 495.969C933.52 488.742 928.051 483.664 920.824 480.734C913.793 477.805 905.199 476.34 895.043 476.34C884.301 476.34 875.121 478.488 867.504 482.785C859.887 486.887 853.637 492.648 848.754 500.07C843.871 507.492 840.258 516.184 837.914 526.145C835.766 536.105 834.691 546.848 834.691 558.371ZM1219.97 733.859C1194.77 733.859 1172.21 729.855 1152.29 721.848C1132.37 713.84 1115.48 702.805 1101.61 688.742C1087.94 674.484 1077.49 658.078 1070.26 639.523C1063.04 620.969 1059.42 601.145 1059.42 580.051V568.918C1059.42 545.285 1062.74 523.508 1069.38 503.586C1076.02 483.664 1085.69 466.379 1098.39 451.73C1111.28 436.887 1127.1 425.461 1145.85 417.453C1164.6 409.25 1185.98 405.148 1210.01 405.148C1232.47 405.148 1252.49 408.859 1270.07 416.281C1287.64 423.508 1302.49 433.957 1314.6 447.629C1326.71 461.105 1335.89 477.414 1342.14 496.555C1348.58 515.5 1351.8 536.789 1351.8 560.422V597.922H1096.34V539.035H1262.16V532.004C1262.16 520.871 1260.11 511.105 1256 502.707C1252.1 494.309 1246.24 487.863 1238.43 483.371C1230.81 478.684 1221.14 476.34 1209.42 476.34C1198.29 476.34 1189.01 478.684 1181.59 483.371C1174.17 488.059 1168.21 494.699 1163.72 503.293C1159.42 511.691 1156.3 521.555 1154.34 532.883C1152.39 544.016 1151.41 556.027 1151.41 568.918V580.051C1151.41 592.355 1153.07 603.586 1156.39 613.742C1159.71 623.898 1164.6 632.59 1171.04 639.816C1177.49 647.043 1185.3 652.707 1194.48 656.809C1203.66 660.91 1214.11 662.961 1225.83 662.961C1240.28 662.961 1254.05 660.227 1267.14 654.758C1280.22 649.094 1291.55 640.305 1301.12 628.391L1343.89 677.316C1337.45 686.691 1328.37 695.773 1316.65 704.562C1305.12 713.156 1291.26 720.188 1275.05 725.656C1258.84 731.125 1240.48 733.859 1219.97 733.859ZM1464.04 477.512V728H1372.63V411.008H1458.47L1464.04 477.512ZM1452.32 558.371L1429.17 558.957C1429.17 536.691 1431.81 516.281 1437.08 497.727C1442.55 478.977 1450.46 462.668 1460.81 448.801C1471.16 434.934 1483.96 424.191 1499.19 416.574C1514.62 408.957 1532.39 405.148 1552.51 405.148C1566.57 405.148 1579.37 407.297 1590.89 411.594C1602.41 415.695 1612.28 422.238 1620.48 431.223C1628.88 440.012 1635.32 451.535 1639.82 465.793C1644.31 479.855 1646.55 496.75 1646.55 516.477V728H1555.15V527.609C1555.15 513.547 1553.39 502.902 1549.88 495.676C1546.55 488.254 1541.67 483.176 1535.23 480.441C1528.78 477.707 1521.07 476.34 1512.08 476.34C1502.32 476.34 1493.62 478.488 1486.01 482.785C1478.59 486.887 1472.34 492.648 1467.26 500.07C1462.18 507.492 1458.37 516.184 1455.83 526.145C1453.49 536.105 1452.32 546.848 1452.32 558.371ZM1637.18 553.684L1608.18 556.027C1608.18 534.543 1610.71 514.621 1615.79 496.262C1620.87 477.902 1628.49 461.984 1638.64 448.508C1648.8 434.836 1661.4 424.191 1676.44 416.574C1691.67 408.957 1709.35 405.148 1729.46 405.148C1744.31 405.148 1757.79 407.297 1769.89 411.594C1782.2 415.891 1792.75 422.824 1801.54 432.395C1810.52 441.965 1817.45 454.562 1822.34 470.188C1827.22 485.617 1829.66 504.562 1829.66 527.023V728H1737.67V527.023C1737.67 513.156 1735.91 502.609 1732.39 495.383C1729.07 488.156 1724.19 483.176 1717.75 480.441C1711.5 477.707 1703.98 476.34 1695.19 476.34C1685.42 476.34 1676.93 478.391 1669.7 482.492C1662.47 486.398 1656.42 491.867 1651.54 498.898C1646.65 505.734 1643.04 513.84 1640.7 523.215C1638.35 532.59 1637.18 542.746 1637.18 553.684ZM1853.71 572.727V566.574C1853.71 543.332 1857.03 521.945 1863.67 502.414C1870.31 482.688 1880.07 465.598 1892.96 451.145C1905.86 436.691 1921.68 425.461 1940.43 417.453C1959.18 409.25 1980.66 405.148 2004.88 405.148C2029.49 405.148 2051.17 409.25 2069.92 417.453C2088.86 425.461 2104.78 436.691 2117.67 451.145C2130.56 465.598 2140.33 482.688 2146.97 502.414C2153.61 521.945 2156.93 543.332 2156.93 566.574V572.727C2156.93 595.773 2153.61 617.16 2146.97 636.887C2140.33 656.418 2130.56 673.508 2117.67 688.156C2104.78 702.609 2088.96 713.84 2070.21 721.848C2051.46 729.855 2029.88 733.859 2005.46 733.859C1981.25 733.859 1959.66 729.855 1940.72 721.848C1921.77 713.84 1905.86 702.609 1892.96 688.156C1880.07 673.508 1870.31 656.418 1863.67 636.887C1857.03 617.16 1853.71 595.773 1853.71 572.727ZM1945.41 566.574V572.727C1945.41 585.227 1946.38 596.945 1948.34 607.883C1950.48 618.82 1953.9 628.391 1958.59 636.594C1963.28 644.797 1969.43 651.242 1977.05 655.93C1984.86 660.422 1994.33 662.668 2005.46 662.668C2016.6 662.668 2025.97 660.422 2033.59 655.93C2041.21 651.242 2047.36 644.797 2052.05 636.594C2056.73 628.391 2060.05 618.82 2062.01 607.883C2064.16 596.945 2065.23 585.227 2065.23 572.727V566.574C2065.23 554.27 2064.16 542.746 2062.01 532.004C2060.05 521.066 2056.73 511.398 2052.05 503C2047.36 494.602 2041.11 488.059 2033.3 483.371C2025.68 478.684 2016.21 476.34 2004.88 476.34C1993.94 476.34 1984.66 478.684 1977.05 483.371C1969.43 488.059 1963.28 494.602 1958.59 503C1953.9 511.398 1950.48 521.066 1948.34 532.004C1946.38 542.746 1945.41 554.27 1945.41 566.574Z"/>
</mask>
<path d="M305.859 301.438H384.961L487.5 606.418L589.746 301.438H668.848L519.434 728H455.273L305.859 301.438ZM260.156 301.438H340.723L355.664 617.551V728H260.156V301.438ZM633.984 301.438H714.844V728H619.043V617.551L633.984 301.438ZM846.703 478.684V728H755.004V411.008H841.137L846.703 478.684ZM834.691 558.371L811.84 558.957C811.84 535.129 814.77 513.742 820.629 494.797C826.488 475.852 834.789 459.738 845.531 446.457C856.469 432.98 869.457 422.727 884.496 415.695C899.73 408.664 916.527 405.148 934.887 405.148C949.73 405.148 963.305 407.297 975.609 411.594C987.914 415.891 998.461 422.824 1007.25 432.395C1016.23 441.77 1023.07 454.27 1027.76 469.895C1032.45 485.324 1034.79 504.367 1034.79 527.023V728H942.797V526.73C942.797 513.449 940.941 503.195 937.23 495.969C933.52 488.742 928.051 483.664 920.824 480.734C913.793 477.805 905.199 476.34 895.043 476.34C884.301 476.34 875.121 478.488 867.504 482.785C859.887 486.887 853.637 492.648 848.754 500.07C843.871 507.492 840.258 516.184 837.914 526.145C835.766 536.105 834.691 546.848 834.691 558.371ZM1219.97 733.859C1194.77 733.859 1172.21 729.855 1152.29 721.848C1132.37 713.84 1115.48 702.805 1101.61 688.742C1087.94 674.484 1077.49 658.078 1070.26 639.523C1063.04 620.969 1059.42 601.145 1059.42 580.051V568.918C1059.42 545.285 1062.74 523.508 1069.38 503.586C1076.02 483.664 1085.69 466.379 1098.39 451.73C1111.28 436.887 1127.1 425.461 1145.85 417.453C1164.6 409.25 1185.98 405.148 1210.01 405.148C1232.47 405.148 1252.49 408.859 1270.07 416.281C1287.64 423.508 1302.49 433.957 1314.6 447.629C1326.71 461.105 1335.89 477.414 1342.14 496.555C1348.58 515.5 1351.8 536.789 1351.8 560.422V597.922H1096.34V539.035H1262.16V532.004C1262.16 520.871 1260.11 511.105 1256 502.707C1252.1 494.309 1246.24 487.863 1238.43 483.371C1230.81 478.684 1221.14 476.34 1209.42 476.34C1198.29 476.34 1189.01 478.684 1181.59 483.371C1174.17 488.059 1168.21 494.699 1163.72 503.293C1159.42 511.691 1156.3 521.555 1154.34 532.883C1152.39 544.016 1151.41 556.027 1151.41 568.918V580.051C1151.41 592.355 1153.07 603.586 1156.39 613.742C1159.71 623.898 1164.6 632.59 1171.04 639.816C1177.49 647.043 1185.3 652.707 1194.48 656.809C1203.66 660.91 1214.11 662.961 1225.83 662.961C1240.28 662.961 1254.05 660.227 1267.14 654.758C1280.22 649.094 1291.55 640.305 1301.12 628.391L1343.89 677.316C1337.45 686.691 1328.37 695.773 1316.65 704.562C1305.12 713.156 1291.26 720.188 1275.05 725.656C1258.84 731.125 1240.48 733.859 1219.97 733.859ZM1464.04 477.512V728H1372.63V411.008H1458.47L1464.04 477.512ZM1452.32 558.371L1429.17 558.957C1429.17 536.691 1431.81 516.281 1437.08 497.727C1442.55 478.977 1450.46 462.668 1460.81 448.801C1471.16 434.934 1483.96 424.191 1499.19 416.574C1514.62 408.957 1532.39 405.148 1552.51 405.148C1566.57 405.148 1579.37 407.297 1590.89 411.594C1602.41 415.695 1612.28 422.238 1620.48 431.223C1628.88 440.012 1635.32 451.535 1639.82 465.793C1644.31 479.855 1646.55 496.75 1646.55 516.477V728H1555.15V527.609C1555.15 513.547 1553.39 502.902 1549.88 495.676C1546.55 488.254 1541.67 483.176 1535.23 480.441C1528.78 477.707 1521.07 476.34 1512.08 476.34C1502.32 476.34 1493.62 478.488 1486.01 482.785C1478.59 486.887 1472.34 492.648 1467.26 500.07C1462.18 507.492 1458.37 516.184 1455.83 526.145C1453.49 536.105 1452.32 546.848 1452.32 558.371ZM1637.18 553.684L1608.18 556.027C1608.18 534.543 1610.71 514.621 1615.79 496.262C1620.87 477.902 1628.49 461.984 1638.64 448.508C1648.8 434.836 1661.4 424.191 1676.44 416.574C1691.67 408.957 1709.35 405.148 1729.46 405.148C1744.31 405.148 1757.79 407.297 1769.89 411.594C1782.2 415.891 1792.75 422.824 1801.54 432.395C1810.52 441.965 1817.45 454.562 1822.34 470.188C1827.22 485.617 1829.66 504.562 1829.66 527.023V728H1737.67V527.023C1737.67 513.156 1735.91 502.609 1732.39 495.383C1729.07 488.156 1724.19 483.176 1717.75 480.441C1711.5 477.707 1703.98 476.34 1695.19 476.34C1685.42 476.34 1676.93 478.391 1669.7 482.492C1662.47 486.398 1656.42 491.867 1651.54 498.898C1646.65 505.734 1643.04 513.84 1640.7 523.215C1638.35 532.59 1637.18 542.746 1637.18 553.684ZM1853.71 572.727V566.574C1853.71 543.332 1857.03 521.945 1863.67 502.414C1870.31 482.688 1880.07 465.598 1892.96 451.145C1905.86 436.691 1921.68 425.461 1940.43 417.453C1959.18 409.25 1980.66 405.148 2004.88 405.148C2029.49 405.148 2051.17 409.25 2069.92 417.453C2088.86 425.461 2104.78 436.691 2117.67 451.145C2130.56 465.598 2140.33 482.688 2146.97 502.414C2153.61 521.945 2156.93 543.332 2156.93 566.574V572.727C2156.93 595.773 2153.61 617.16 2146.97 636.887C2140.33 656.418 2130.56 673.508 2117.67 688.156C2104.78 702.609 2088.96 713.84 2070.21 721.848C2051.46 729.855 2029.88 733.859 2005.46 733.859C1981.25 733.859 1959.66 729.855 1940.72 721.848C1921.77 713.84 1905.86 702.609 1892.96 688.156C1880.07 673.508 1870.31 656.418 1863.67 636.887C1857.03 617.16 1853.71 595.773 1853.71 572.727ZM1945.41 566.574V572.727C1945.41 585.227 1946.38 596.945 1948.34 607.883C1950.48 618.82 1953.9 628.391 1958.59 636.594C1963.28 644.797 1969.43 651.242 1977.05 655.93C1984.86 660.422 1994.33 662.668 2005.46 662.668C2016.6 662.668 2025.97 660.422 2033.59 655.93C2041.21 651.242 2047.36 644.797 2052.05 636.594C2056.73 628.391 2060.05 618.82 2062.01 607.883C2064.16 596.945 2065.23 585.227 2065.23 572.727V566.574C2065.23 554.27 2064.16 542.746 2062.01 532.004C2060.05 521.066 2056.73 511.398 2052.05 503C2047.36 494.602 2041.11 488.059 2033.3 483.371C2025.68 478.684 2016.21 476.34 2004.88 476.34C1993.94 476.34 1984.66 478.684 1977.05 483.371C1969.43 488.059 1963.28 494.602 1958.59 503C1953.9 511.398 1950.48 521.066 1948.34 532.004C1946.38 542.746 1945.41 554.27 1945.41 566.574Z" fill="#2D3E50"/>
<path d="M305.859 301.438V296.438H298.81L301.14 303.09L305.859 301.438ZM384.961 301.438L389.7 299.844L388.555 296.438H384.961V301.438ZM487.5 606.418L482.761 608.011L487.507 622.128L492.241 608.007L487.5 606.418ZM589.746 301.438V296.438H586.149L585.005 299.848L589.746 301.438ZM668.848 301.438L673.567 303.09L675.897 296.438H668.848V301.438ZM519.434 728V733H522.98L524.152 729.653L519.434 728ZM455.273 728L450.555 729.653L451.727 733H455.273V728ZM260.156 301.438V296.438H255.156V301.438H260.156ZM340.723 301.438L345.717 301.201L345.492 296.438H340.723V301.438ZM355.664 617.551H360.664V617.433L360.658 617.315L355.664 617.551ZM355.664 728V733H360.664V728H355.664ZM260.156 728H255.156V733H260.156V728ZM633.984 301.438V296.438H629.215L628.99 301.201L633.984 301.438ZM714.844 301.438H719.844V296.438H714.844V301.438ZM714.844 728V733H719.844V728H714.844ZM619.043 728H614.043V733H619.043V728ZM619.043 617.551L614.049 617.315L614.043 617.433V617.551H619.043ZM305.859 306.438H384.961V296.438H305.859V306.438ZM380.222 303.031L482.761 608.011L492.239 604.825L389.7 299.844L380.222 303.031ZM492.241 608.007L594.487 303.027L585.005 299.848L482.759 604.829L492.241 608.007ZM589.746 306.438H668.848V296.438H589.746V306.438ZM664.129 299.785L514.715 726.347L524.152 729.653L673.567 303.09L664.129 299.785ZM519.434 723H455.273V733H519.434V723ZM459.992 726.347L310.578 299.785L301.14 303.09L450.555 729.653L459.992 726.347ZM260.156 306.438H340.723V296.438H260.156V306.438ZM335.728 301.674L350.67 617.787L360.658 617.315L345.717 301.201L335.728 301.674ZM350.664 617.551V728H360.664V617.551H350.664ZM355.664 723H260.156V733H355.664V723ZM265.156 728V301.438H255.156V728H265.156ZM633.984 306.438H714.844V296.438H633.984V306.438ZM709.844 301.438V728H719.844V301.438H709.844ZM714.844 723H619.043V733H714.844V723ZM624.043 728V617.551H614.043V728H624.043ZM624.037 617.787L638.979 301.674L628.99 301.201L614.049 617.315L624.037 617.787ZM846.703 478.684H851.703V478.478L851.686 478.274L846.703 478.684ZM846.703 728V733H851.703V728H846.703ZM755.004 728H750.004V733H755.004V728ZM755.004 411.008V406.008H750.004V411.008H755.004ZM841.137 411.008L846.12 410.598L845.742 406.008H841.137V411.008ZM834.691 558.371L834.82 563.369L839.691 563.245V558.371H834.691ZM811.84 558.957H806.84V564.087L811.968 563.955L811.84 558.957ZM845.531 446.457L841.649 443.306L841.644 443.313L845.531 446.457ZM884.496 415.695L882.401 411.156L882.39 411.161L882.378 411.166L884.496 415.695ZM1007.25 432.395L1003.57 435.777L1003.6 435.816L1003.64 435.854L1007.25 432.395ZM1027.76 469.895L1022.97 471.331L1022.97 471.34L1022.97 471.348L1027.76 469.895ZM1034.79 728V733H1039.79V728H1034.79ZM942.797 728H937.797V733H942.797V728ZM920.824 480.734L918.901 485.35L918.923 485.359L918.946 485.368L920.824 480.734ZM867.504 482.785L869.874 487.188L869.918 487.164L869.961 487.14L867.504 482.785ZM837.914 526.145L833.047 524.999L833.036 525.045L833.026 525.09L837.914 526.145ZM841.703 478.684V728H851.703V478.684H841.703ZM846.703 723H755.004V733H846.703V723ZM760.004 728V411.008H750.004V728H760.004ZM755.004 416.008H841.137V406.008H755.004V416.008ZM836.154 411.418L841.72 479.093L851.686 478.274L846.12 410.598L836.154 411.418ZM834.563 553.373L811.712 553.959L811.968 563.955L834.82 563.369L834.563 553.373ZM816.84 558.957C816.84 535.532 819.721 514.656 825.406 496.274L815.852 493.32C809.818 512.828 806.84 534.726 806.84 558.957H816.84ZM825.406 496.274C831.107 477.84 839.135 462.316 849.419 449.601L841.644 443.313C830.443 457.161 821.869 473.863 815.852 493.32L825.406 496.274ZM849.414 449.608C859.897 436.691 872.291 426.921 886.614 420.225L882.378 411.166C866.623 418.532 853.041 429.27 841.649 443.306L849.414 449.608ZM886.591 420.235C901.109 413.535 917.182 410.148 934.887 410.148V400.148C915.873 400.148 898.352 403.793 882.401 411.156L886.591 420.235ZM934.887 410.148C949.246 410.148 962.254 412.226 973.961 416.314L977.258 406.873C964.355 402.368 950.215 400.148 934.887 400.148V410.148ZM973.961 416.314C985.49 420.34 995.337 426.815 1003.57 435.777L1010.93 429.013C1001.58 418.833 990.338 411.441 977.258 406.873L973.961 416.314ZM1003.64 435.854C1011.95 444.53 1018.45 456.275 1022.97 471.331L1032.55 468.458C1027.69 452.265 1020.51 439.009 1010.86 428.935L1003.64 435.854ZM1022.97 471.348C1027.47 486.159 1029.79 504.677 1029.79 527.023H1039.79C1039.79 504.057 1037.42 484.49 1032.54 468.441L1022.97 471.348ZM1029.79 527.023V728H1039.79V527.023H1029.79ZM1034.79 723H942.797V733H1034.79V723ZM947.797 728V526.73H937.797V728H947.797ZM947.797 526.73C947.797 513.102 945.912 501.93 941.678 493.685L932.783 498.253C935.97 504.461 937.797 513.797 937.797 526.73H947.797ZM941.678 493.685C937.445 485.441 931.089 479.501 922.703 476.101L918.946 485.368C925.012 487.828 929.594 492.043 932.783 498.253L941.678 493.685ZM922.747 476.119C914.94 472.866 905.651 471.34 895.043 471.34V481.34C904.747 481.34 912.646 482.743 918.901 485.35L922.747 476.119ZM895.043 471.34C883.635 471.34 873.567 473.624 865.047 478.43L869.961 487.14C876.675 483.352 884.967 481.34 895.043 481.34V471.34ZM865.133 478.383C856.766 482.888 849.903 489.227 844.577 497.322L852.931 502.818C857.371 496.07 863.007 490.885 869.874 487.188L865.133 478.383ZM844.577 497.322C839.327 505.302 835.505 514.553 833.047 524.999L842.781 527.29C845.011 517.814 848.415 509.682 852.931 502.818L844.577 497.322ZM833.026 525.09C830.794 535.439 829.691 546.539 829.691 558.371H839.691C839.691 547.157 840.737 536.772 842.802 527.199L833.026 525.09ZM1101.61 688.742L1098 692.203L1098.02 692.228L1098.05 692.253L1101.61 688.742ZM1098.39 451.73L1094.61 448.452L1094.61 448.456L1098.39 451.73ZM1145.85 417.453L1147.81 422.051L1147.83 422.043L1147.85 422.034L1145.85 417.453ZM1270.07 416.281L1268.12 420.887L1268.14 420.897L1268.17 420.906L1270.07 416.281ZM1314.6 447.629L1310.85 450.944L1310.87 450.957L1310.88 450.971L1314.6 447.629ZM1342.14 496.555L1337.38 498.107L1337.39 498.136L1337.4 498.165L1342.14 496.555ZM1351.8 597.922V602.922H1356.8V597.922H1351.8ZM1096.34 597.922H1091.34V602.922H1096.34V597.922ZM1096.34 539.035V534.035H1091.34V539.035H1096.34ZM1262.16 539.035V544.035H1267.16V539.035H1262.16ZM1256 502.707L1251.47 504.816L1251.49 504.859L1251.51 504.901L1256 502.707ZM1238.43 483.371L1235.81 487.629L1235.87 487.668L1235.93 487.706L1238.43 483.371ZM1163.72 503.293L1159.29 500.977L1159.28 500.996L1159.27 501.016L1163.72 503.293ZM1154.34 532.883L1159.27 533.747L1159.27 533.74L1159.27 533.732L1154.34 532.883ZM1267.14 654.758L1269.06 659.371L1269.09 659.359L1269.12 659.346L1267.14 654.758ZM1301.12 628.391L1304.89 625.1L1300.96 620.608L1297.22 625.259L1301.12 628.391ZM1343.89 677.316L1348.01 680.149L1350.21 676.949L1347.66 674.025L1343.89 677.316ZM1316.65 704.562L1319.64 708.571L1319.65 708.562L1316.65 704.562ZM1219.97 728.859C1195.3 728.859 1173.39 724.94 1154.16 717.208L1150.43 726.487C1171.04 734.771 1194.24 738.859 1219.97 738.859V728.859ZM1154.16 717.208C1134.82 709.434 1118.51 698.764 1105.17 685.231L1098.05 692.253C1112.44 706.845 1129.93 718.246 1150.43 726.487L1154.16 717.208ZM1105.22 685.282C1092 671.502 1081.91 655.656 1074.92 637.709L1065.6 641.338C1073.07 660.5 1083.87 677.467 1098 692.203L1105.22 685.282ZM1074.92 637.709C1067.93 619.766 1064.42 600.561 1064.42 580.051H1054.42C1054.42 601.728 1058.14 622.171 1065.6 641.338L1074.92 637.709ZM1064.42 580.051V568.918H1054.42V580.051H1064.42ZM1064.42 568.918C1064.42 545.756 1067.68 524.52 1074.13 505.167L1064.64 502.005C1057.81 522.496 1054.42 544.814 1054.42 568.918H1064.42ZM1074.13 505.167C1080.58 485.815 1089.93 469.118 1102.17 455.005L1094.61 448.456C1081.45 463.64 1071.47 481.513 1064.64 502.005L1074.13 505.167ZM1102.16 455.009C1114.54 440.758 1129.73 429.773 1147.81 422.051L1143.88 412.855C1124.46 421.149 1108.02 433.016 1094.61 448.452L1102.16 455.009ZM1147.85 422.034C1165.87 414.151 1186.56 410.148 1210.01 410.148V400.148C1185.41 400.148 1163.33 404.349 1143.84 412.872L1147.85 422.034ZM1210.01 410.148C1231.92 410.148 1251.26 413.767 1268.12 420.887L1272.01 411.675C1253.72 403.951 1233.02 400.148 1210.01 400.148V410.148ZM1268.17 420.906C1285.07 427.854 1299.27 437.867 1310.85 450.944L1318.34 444.314C1305.7 430.047 1290.22 419.161 1271.97 411.657L1268.17 420.906ZM1310.88 450.971C1322.47 463.874 1331.33 479.554 1337.38 498.107L1346.89 495.003C1340.45 475.274 1330.94 458.337 1318.32 444.287L1310.88 450.971ZM1337.4 498.165C1343.64 516.508 1346.8 537.24 1346.8 560.422H1356.8C1356.8 536.338 1353.52 514.492 1346.87 494.944L1337.4 498.165ZM1346.8 560.422V597.922H1356.8V560.422H1346.8ZM1351.8 592.922H1096.34V602.922H1351.8V592.922ZM1101.34 597.922V539.035H1091.34V597.922H1101.34ZM1096.34 544.035H1262.16V534.035H1096.34V544.035ZM1267.16 539.035V532.004H1257.16V539.035H1267.16ZM1267.16 532.004C1267.16 520.255 1264.99 509.713 1260.5 500.513L1251.51 504.901C1255.22 512.498 1257.16 521.488 1257.16 532.004H1267.16ZM1260.54 500.598C1256.21 491.293 1249.65 484.058 1240.92 479.037L1235.93 487.706C1242.83 491.669 1247.99 497.324 1251.47 504.816L1260.54 500.598ZM1241.05 479.113C1232.43 473.812 1221.79 471.34 1209.42 471.34V481.34C1220.5 481.34 1229.19 483.555 1235.81 487.629L1241.05 479.113ZM1209.42 471.34C1197.6 471.34 1187.33 473.832 1178.92 479.144L1184.26 487.599C1190.69 483.535 1198.98 481.34 1209.42 481.34V471.34ZM1178.92 479.144C1170.68 484.35 1164.14 491.686 1159.29 500.977L1168.15 505.609C1172.28 497.713 1177.66 491.767 1184.26 487.599L1178.92 479.144ZM1159.27 501.016C1154.7 509.949 1151.44 520.312 1149.42 532.033L1159.27 533.732C1161.16 522.797 1164.15 513.434 1168.17 505.57L1159.27 501.016ZM1149.42 532.019C1147.41 543.473 1146.41 555.777 1146.41 568.918H1156.41C1156.41 556.277 1157.37 544.558 1159.27 533.747L1149.42 532.019ZM1146.41 568.918V580.051H1156.41V568.918H1146.41ZM1146.41 580.051C1146.41 592.805 1148.14 604.569 1151.64 615.296L1161.15 612.188C1158.01 602.603 1156.41 591.906 1156.41 580.051H1146.41ZM1151.64 615.296C1155.15 626.039 1160.36 635.352 1167.31 643.144L1174.77 636.488C1168.83 629.827 1164.28 621.757 1161.15 612.188L1151.64 615.296ZM1167.31 643.144C1174.25 650.919 1182.64 656.995 1192.44 661.374L1196.52 652.244C1187.96 648.419 1180.73 643.167 1174.77 636.488L1167.31 643.144ZM1192.44 661.374C1202.36 665.806 1213.52 667.961 1225.83 667.961V657.961C1214.7 657.961 1204.96 656.015 1196.52 652.244L1192.44 661.374ZM1225.83 667.961C1240.93 667.961 1255.36 665.1 1269.06 659.371L1265.21 650.144C1252.75 655.353 1239.63 657.961 1225.83 657.961V667.961ZM1269.12 659.346C1283.01 653.336 1294.98 644.023 1305.02 631.522L1297.22 625.259C1288.12 636.586 1277.44 644.851 1265.15 650.169L1269.12 659.346ZM1297.36 631.682L1340.13 680.607L1347.66 674.025L1304.89 625.1L1297.36 631.682ZM1339.77 674.484C1333.71 683.304 1325.05 692.01 1313.65 700.562L1319.65 708.562C1331.68 699.536 1341.19 690.079 1348.01 680.149L1339.77 674.484ZM1313.66 700.554C1302.63 708.78 1289.25 715.587 1273.45 720.919L1276.65 730.394C1293.26 724.788 1307.62 717.533 1319.64 708.571L1313.66 700.554ZM1273.45 720.919C1257.84 726.183 1240.04 728.859 1219.97 728.859V738.859C1240.92 738.859 1259.83 736.067 1276.65 730.394L1273.45 720.919ZM1464.04 477.512H1469.04V477.303L1469.02 477.095L1464.04 477.512ZM1464.04 728V733H1469.04V728H1464.04ZM1372.63 728H1367.63V733H1372.63V728ZM1372.63 411.008V406.008H1367.63V411.008H1372.63ZM1458.47 411.008L1463.45 410.591L1463.07 406.008H1458.47V411.008ZM1452.32 558.371L1452.44 563.369L1457.32 563.246V558.371H1452.32ZM1429.17 558.957H1424.17V564.085L1429.3 563.955L1429.17 558.957ZM1437.08 497.727L1432.28 496.327L1432.28 496.343L1432.27 496.36L1437.08 497.727ZM1499.19 416.574L1496.98 412.091L1496.97 412.096L1496.96 412.102L1499.19 416.574ZM1590.89 411.594L1589.14 416.279L1589.18 416.292L1589.21 416.304L1590.89 411.594ZM1620.48 431.223L1616.79 434.594L1616.83 434.636L1616.87 434.677L1620.48 431.223ZM1639.82 465.793L1635.05 467.295L1635.05 467.305L1635.05 467.314L1639.82 465.793ZM1646.55 728V733H1651.55V728H1646.55ZM1555.15 728H1550.15V733H1555.15V728ZM1549.88 495.676L1545.31 497.718L1545.34 497.791L1545.38 497.863L1549.88 495.676ZM1486.01 482.785L1488.43 487.161L1488.45 487.151L1488.46 487.14L1486.01 482.785ZM1455.83 526.145L1450.99 524.91L1450.98 524.954L1450.96 524.999L1455.83 526.145ZM1637.18 553.684L1637.58 558.667L1642.18 558.296V553.684H1637.18ZM1608.18 556.027H1603.18V561.448L1608.58 561.011L1608.18 556.027ZM1638.64 448.508L1642.64 451.517L1642.65 451.503L1642.66 451.489L1638.64 448.508ZM1676.44 416.574L1674.2 412.102L1674.19 412.108L1674.18 412.114L1676.44 416.574ZM1769.89 411.594L1768.22 416.306L1768.23 416.31L1768.25 416.314L1769.89 411.594ZM1801.54 432.395L1797.85 435.777L1797.87 435.797L1797.89 435.817L1801.54 432.395ZM1822.34 470.188L1817.56 471.679L1817.57 471.687L1817.57 471.696L1822.34 470.188ZM1829.66 728V733H1834.66V728H1829.66ZM1737.67 728H1732.67V733H1737.67V728ZM1732.39 495.383L1727.85 497.47L1727.87 497.52L1727.9 497.57L1732.39 495.383ZM1717.75 480.441L1715.74 485.022L1715.77 485.033L1715.79 485.044L1717.75 480.441ZM1669.7 482.492L1672.08 486.891L1672.12 486.866L1672.17 486.841L1669.7 482.492ZM1651.54 498.898L1655.6 501.805L1655.62 501.778L1655.64 501.75L1651.54 498.898ZM1459.04 477.512V728H1469.04V477.512H1459.04ZM1464.04 723H1372.63V733H1464.04V723ZM1377.63 728V411.008H1367.63V728H1377.63ZM1372.63 416.008H1458.47V406.008H1372.63V416.008ZM1453.49 411.425L1459.05 477.929L1469.02 477.095L1463.45 410.591L1453.49 411.425ZM1452.19 553.373L1429.05 553.959L1429.3 563.955L1452.44 563.369L1452.19 553.373ZM1434.17 558.957C1434.17 537.084 1436.76 517.141 1441.89 499.093L1432.27 496.36C1426.85 515.421 1424.17 536.299 1424.17 558.957H1434.17ZM1441.88 499.127C1447.2 480.877 1454.87 465.123 1464.82 451.792L1456.81 445.81C1446.05 460.213 1437.9 477.076 1432.28 496.327L1441.88 499.127ZM1464.82 451.792C1474.71 438.539 1486.9 428.309 1501.43 421.046L1496.96 412.102C1481.01 420.074 1467.62 431.328 1456.81 445.81L1464.82 451.792ZM1501.4 421.058C1516.04 413.833 1533.03 410.148 1552.51 410.148V400.148C1531.76 400.148 1513.2 404.081 1496.98 412.091L1501.4 421.058ZM1552.51 410.148C1566.06 410.148 1578.25 412.218 1589.14 416.279L1592.64 406.909C1580.48 402.376 1567.09 400.148 1552.51 400.148V410.148ZM1589.21 416.304C1599.97 420.133 1609.14 426.218 1616.79 434.594L1624.17 427.851C1615.41 418.259 1604.86 411.258 1592.57 406.883L1589.21 416.304ZM1616.87 434.677C1624.63 442.8 1630.73 453.603 1635.05 467.295L1644.59 464.29C1639.91 449.467 1633.13 437.224 1624.1 427.768L1616.87 434.677ZM1635.05 467.314C1639.35 480.751 1641.55 497.104 1641.55 516.477H1651.55C1651.55 496.396 1649.27 478.96 1644.58 464.271L1635.05 467.314ZM1641.55 516.477V728H1651.55V516.477H1641.55ZM1646.55 723H1555.15V733H1646.55V723ZM1560.15 728V527.609H1550.15V728H1560.15ZM1560.15 527.609C1560.15 513.276 1558.38 501.73 1554.37 493.488L1545.38 497.863C1548.4 504.075 1550.15 513.817 1550.15 527.609H1560.15ZM1554.44 493.634C1550.69 485.258 1544.97 479.145 1537.18 475.838L1533.27 485.044C1538.37 487.206 1542.42 491.25 1545.31 497.718L1554.44 493.634ZM1537.18 475.838C1529.97 472.779 1521.56 471.34 1512.08 471.34V481.34C1520.58 481.34 1527.59 482.635 1533.27 485.044L1537.18 475.838ZM1512.08 471.34C1501.56 471.34 1492 473.663 1483.55 478.43L1488.46 487.14C1495.25 483.314 1503.07 481.34 1512.08 481.34V471.34ZM1483.59 478.409C1475.44 482.911 1468.62 489.221 1463.13 497.247L1471.38 502.894C1476.05 496.076 1481.73 490.863 1488.43 487.161L1483.59 478.409ZM1463.13 497.247C1457.68 505.216 1453.65 514.461 1450.99 524.91L1460.68 527.38C1463.09 517.906 1466.68 509.768 1471.38 502.894L1463.13 497.247ZM1450.96 524.999C1448.52 535.379 1447.32 546.51 1447.32 558.371H1457.32C1457.32 547.186 1458.45 536.832 1460.7 527.29L1450.96 524.999ZM1636.78 548.7L1607.77 551.044L1608.58 561.011L1637.58 558.667L1636.78 548.7ZM1613.18 556.027C1613.18 534.937 1615.67 515.469 1620.61 497.595L1610.97 494.929C1605.76 513.774 1603.18 534.149 1603.18 556.027H1613.18ZM1620.61 497.595C1625.54 479.763 1632.91 464.431 1642.64 451.517L1634.65 445.499C1624.07 459.538 1616.2 476.041 1610.97 494.929L1620.61 497.595ZM1642.66 451.489C1652.36 438.433 1664.36 428.298 1678.7 421.035L1674.18 412.114C1658.44 420.085 1645.24 431.239 1634.63 445.526L1642.66 451.489ZM1678.67 421.046C1693.1 413.834 1709.98 410.148 1729.46 410.148V400.148C1708.71 400.148 1690.25 404.08 1674.2 412.102L1678.67 421.046ZM1729.46 410.148C1743.83 410.148 1756.73 412.227 1768.22 416.306L1771.57 406.882C1758.84 402.367 1744.79 400.148 1729.46 400.148V410.148ZM1768.25 416.314C1779.78 420.34 1789.62 426.815 1797.85 435.777L1805.22 429.013C1795.87 418.833 1784.62 411.441 1771.54 406.873L1768.25 416.314ZM1797.89 435.817C1806.25 444.718 1812.85 456.601 1817.56 471.679L1827.11 468.696C1822.05 452.524 1814.79 439.212 1805.18 428.972L1797.89 435.817ZM1817.57 471.696C1822.25 486.49 1824.66 504.891 1824.66 527.023H1834.66C1834.66 504.234 1832.19 484.745 1827.1 468.679L1817.57 471.696ZM1824.66 527.023V728H1834.66V527.023H1824.66ZM1829.66 723H1737.67V733H1829.66V723ZM1742.67 728V527.023H1732.67V728H1742.67ZM1742.67 527.023C1742.67 512.873 1740.9 501.43 1736.89 493.195L1727.9 497.57C1730.92 503.789 1732.67 513.44 1732.67 527.023H1742.67ZM1736.94 493.295C1733.17 485.102 1727.45 479.126 1719.7 475.838L1715.79 485.044C1720.93 487.226 1724.98 491.211 1727.85 497.47L1736.94 493.295ZM1719.75 475.861C1712.71 472.782 1704.48 471.34 1695.19 471.34V481.34C1703.48 481.34 1710.28 482.632 1715.74 485.022L1719.75 475.861ZM1695.19 471.34C1684.71 471.34 1675.33 473.546 1667.23 478.144L1672.17 486.841C1678.52 483.236 1686.13 481.34 1695.19 481.34V471.34ZM1667.32 478.094C1659.38 482.389 1652.74 488.399 1647.43 496.046L1655.64 501.75C1660.1 495.335 1665.57 490.408 1672.08 486.891L1667.32 478.094ZM1647.47 495.992C1642.17 503.409 1638.32 512.109 1635.84 522.002L1645.55 524.428C1647.76 515.571 1651.14 508.059 1655.6 501.805L1647.47 495.992ZM1635.84 522.002C1633.39 531.822 1632.18 542.39 1632.18 553.684H1642.18C1642.18 543.102 1643.31 533.358 1645.55 524.428L1635.84 522.002ZM1863.67 502.414L1868.4 504.024L1868.4 504.016L1868.41 504.009L1863.67 502.414ZM1940.43 417.453L1942.39 422.051L1942.41 422.043L1942.43 422.034L1940.43 417.453ZM2069.92 417.453L2067.91 422.034L2067.94 422.046L2067.97 422.059L2069.92 417.453ZM2146.97 502.414L2142.23 504.009L2142.23 504.016L2142.23 504.024L2146.97 502.414ZM2146.97 636.887L2151.7 638.496L2151.71 638.489L2151.71 638.482L2146.97 636.887ZM2117.67 688.156L2121.4 691.484L2121.41 691.472L2121.43 691.459L2117.67 688.156ZM1892.96 688.156L1889.21 691.459L1889.22 691.472L1889.23 691.484L1892.96 688.156ZM1863.67 636.887L1858.93 638.482L1858.93 638.489L1858.93 638.496L1863.67 636.887ZM1948.34 607.883L1943.41 608.762L1943.42 608.804L1943.43 608.847L1948.34 607.883ZM1977.05 655.93L1974.43 660.188L1974.49 660.227L1974.55 660.264L1977.05 655.93ZM2033.59 655.93L2036.13 660.237L2036.17 660.213L2036.21 660.188L2033.59 655.93ZM2062.01 607.883L2057.1 606.919L2057.09 606.961L2057.09 607.004L2062.01 607.883ZM2062.01 532.004L2057.09 532.883L2057.09 532.934L2057.1 532.984L2062.01 532.004ZM2033.3 483.371L2030.68 487.629L2030.7 487.644L2030.72 487.659L2033.3 483.371ZM1948.34 532.004L1943.43 531.04L1943.42 531.075L1943.42 531.109L1948.34 532.004ZM1858.71 572.727V566.574H1848.71V572.727H1858.71ZM1858.71 566.574C1858.71 543.811 1861.96 522.975 1868.4 504.024L1858.93 500.805C1852.1 520.915 1848.71 542.853 1848.71 566.574H1858.71ZM1868.41 504.009C1874.85 484.874 1884.29 468.385 1896.7 454.473L1889.23 447.816C1875.86 462.81 1865.77 480.501 1858.93 500.819L1868.41 504.009ZM1896.7 454.473C1909.07 440.596 1924.28 429.786 1942.39 422.051L1938.46 412.855C1919.07 421.136 1902.64 432.786 1889.23 447.816L1896.7 454.473ZM1942.43 422.034C1960.44 414.153 1981.23 410.148 2004.88 410.148V400.148C1980.1 400.148 1957.91 404.347 1938.42 412.872L1942.43 422.034ZM2004.88 410.148C2028.94 410.148 2049.91 414.157 2067.91 422.034L2071.92 412.872C2052.43 404.343 2030.04 400.148 2004.88 400.148V410.148ZM2067.97 422.059C2086.28 429.796 2101.57 440.606 2113.94 454.473L2121.4 447.816C2107.99 432.777 2091.45 421.126 2071.86 412.848L2067.97 422.059ZM2113.94 454.473C2126.35 468.385 2135.79 484.874 2142.23 504.009L2151.71 500.819C2144.87 480.501 2134.78 462.81 2121.4 447.816L2113.94 454.473ZM2142.23 504.024C2148.68 522.975 2151.93 543.811 2151.93 566.574H2161.93C2161.93 542.853 2158.54 520.915 2151.7 500.805L2142.23 504.024ZM2151.93 566.574V572.727H2161.93V566.574H2151.93ZM2151.93 572.727C2151.93 595.289 2148.68 616.131 2142.23 635.292L2151.71 638.482C2158.54 618.189 2161.93 596.258 2161.93 572.727H2151.93ZM2142.23 635.277C2135.79 654.221 2126.35 670.727 2113.92 684.853L2121.43 691.459C2134.78 676.289 2144.86 658.615 2151.7 638.496L2142.23 635.277ZM2113.94 684.828C2101.56 698.704 2086.36 709.514 2068.25 717.249L2072.17 726.446C2091.56 718.165 2108 706.514 2121.4 691.484L2113.94 684.828ZM2068.25 717.249C2050.23 724.945 2029.33 728.859 2005.46 728.859V738.859C2030.42 738.859 2052.69 734.766 2072.17 726.446L2068.25 717.249ZM2005.46 728.859C1981.8 728.859 1960.9 724.948 1942.67 717.242L1938.77 726.453C1958.43 734.763 1980.69 738.859 2005.46 738.859V728.859ZM1942.67 717.242C1924.36 709.504 1909.06 698.695 1896.7 684.828L1889.23 691.484C1902.65 706.524 1919.19 718.175 1938.77 726.453L1942.67 717.242ZM1896.72 684.853C1884.29 670.727 1874.84 654.221 1868.4 635.277L1858.93 638.496C1865.77 658.615 1875.86 676.289 1889.21 691.459L1896.72 684.853ZM1868.41 635.292C1861.96 616.131 1858.71 595.289 1858.71 572.727H1848.71C1848.71 596.258 1852.1 618.189 1858.93 638.482L1868.41 635.292ZM1940.41 566.574V572.727H1950.41V566.574H1940.41ZM1940.41 572.727C1940.41 585.485 1941.4 597.501 1943.41 608.762L1953.26 607.004C1951.36 596.39 1950.41 584.968 1950.41 572.727H1940.41ZM1943.43 608.847C1945.66 620.224 1949.25 630.324 1954.25 639.074L1962.93 634.113C1958.56 626.458 1955.3 617.417 1953.24 606.919L1943.43 608.847ZM1954.25 639.074C1959.33 647.963 1966.06 655.037 1974.43 660.188L1979.67 651.671C1972.8 647.448 1967.23 641.631 1962.93 634.113L1954.25 639.074ZM1974.55 660.264C1983.28 665.284 1993.66 667.668 2005.46 667.668V657.668C1995 657.668 1986.43 655.56 1979.54 651.595L1974.55 660.264ZM2005.46 667.668C2017.26 667.668 2027.57 665.286 2036.13 660.237L2031.05 651.623C2024.38 655.558 2015.93 657.668 2005.46 657.668V667.668ZM2036.21 660.188C2044.58 655.037 2051.31 647.963 2056.39 639.074L2047.71 634.113C2043.41 641.631 2037.83 647.448 2030.97 651.671L2036.21 660.188ZM2056.39 639.074C2061.4 630.296 2064.89 620.166 2066.93 608.762L2057.09 607.004C2055.22 617.475 2052.06 626.485 2047.71 634.113L2056.39 639.074ZM2066.91 608.847C2069.13 597.556 2070.23 585.512 2070.23 572.727H2060.23C2060.23 584.941 2059.18 596.335 2057.1 606.919L2066.91 608.847ZM2070.23 572.727V566.574H2060.23V572.727H2070.23ZM2070.23 566.574C2070.23 553.98 2069.13 542.125 2066.91 531.023L2057.1 532.984C2059.18 543.367 2060.23 554.559 2060.23 566.574H2070.23ZM2066.93 531.125C2064.89 519.724 2061.41 509.515 2056.41 500.563L2047.68 505.437C2052.06 513.282 2055.22 522.409 2057.09 532.883L2066.93 531.125ZM2056.41 500.563C2051.32 491.446 2044.47 484.246 2035.87 479.084L2030.72 487.659C2037.75 491.871 2043.39 497.757 2047.68 505.437L2056.41 500.563ZM2035.92 479.113C2027.33 473.827 2016.89 471.34 2004.88 471.34V481.34C2015.53 481.34 2024.03 483.541 2030.68 487.629L2035.92 479.113ZM2004.88 471.34C1993.22 471.34 1982.99 473.843 1974.43 479.113L1979.67 487.629C1986.34 483.525 1994.66 481.34 2004.88 481.34V471.34ZM1974.43 479.113C1966.03 484.282 1959.3 491.476 1954.22 500.563L1962.96 505.437C1967.26 497.727 1972.83 491.835 1979.67 487.629L1974.43 479.113ZM1954.22 500.563C1949.24 509.488 1945.66 519.667 1943.43 531.04L1953.24 532.968C1955.3 522.466 1958.56 513.309 1962.96 505.437L1954.22 500.563ZM1943.42 531.109C1941.4 542.181 1940.41 554.007 1940.41 566.574H1950.41C1950.41 554.532 1951.36 543.311 1953.26 532.898L1943.42 531.109Z" fill="#F9F9F9" mask="url(#path-5-outside-1_266_3)"/>
</svg>
